<svg width="44" height="35" viewBox="0 0 44 35" fill="none" xmlns="http://www.w3.org/2000/svg">
<g clip-path="url(#clip0_993_486)">
<path d="M26.7139 7.95996H37.7119V11.14H26.7139V7.95996Z" fill="white"/>
<path d="M26.7139 15.9102H37.7119V19.0902H26.7139V15.9102Z" fill="white"/>
<path d="M26.7139 23.8599H37.7119V27.0399H26.7139V23.8599Z" fill="white"/>
<path d="M40.8538 0.0102539H3.1462C2.31307 0.0110958 1.5143 0.346403 0.925182 0.942589C0.336068 1.53877 0.00473814 2.34713 0.00390625 3.19027V31.8104C0.00473814 32.6535 0.336068 33.4619 0.925182 34.0581C1.5143 34.6543 2.31307 34.9896 3.1462 34.9904H40.8538C41.6868 34.9891 42.4853 34.6537 43.0743 34.0576C43.6634 33.4615 43.9948 32.6534 43.9961 31.8104V3.19027C43.9952 2.34713 43.6639 1.53877 43.0748 0.942589C42.4857 0.346403 41.6869 0.0110958 40.8538 0.0102539ZM3.1462 3.19027H20.4288V31.8104H3.1462V3.19027ZM23.5711 31.8104V3.19027H40.8538L40.8569 31.8104H23.5711Z" fill="white"/>
</g>
<defs>
<clipPath id="clip0_993_486">
<rect width="44" height="35" fill="white"/>
</clipPath>
</defs>
</svg>
